<svg width="228" height="200" viewBox="0 0 228 200" fill="none" xmlns="http://www.w3.org/2000/svg">
<circle cx="137" cy="56.9184" r="19.7613" transform="rotate(-11.6178 137 56.9184)" fill="#00B4D8" stroke="white" stroke-width="4"/>
<circle cx="127.76" cy="41.4487" r="25.6961" transform="rotate(-11.6178 127.76 41.4487)" fill="#00B4D8" stroke="white" stroke-width="4"/>
<path d="M118.294 54.2535C111.698 50.962 109.019 42.9465 112.311 36.3506" stroke="white" stroke-width="4" stroke-linecap="round"/>
<circle cx="82.6553" cy="51.9339" r="8.6828" transform="rotate(-11.6178 82.6553 51.9339)" fill="#00B4D8" stroke="white" stroke-width="4"/>
<circle cx="118.295" cy="99.5416" r="8.6828" transform="rotate(-11.6178 118.295 99.5416)" fill="#00B4D8" stroke="white" stroke-width="4"/>
<circle cx="214.704" cy="164.281" r="8.6828" transform="rotate(-11.6178 214.704 164.281)" fill="#00B4D8" stroke="white" stroke-width="4"/>
<circle cx="78.2692" cy="44.353" r="11.4524" transform="rotate(-11.6178 78.2692 44.353)" fill="#00B4D8" stroke="white" stroke-width="4"/>
<circle cx="99.4249" cy="82.4166" r="7.89148" transform="rotate(-11.6178 99.4249 82.4166)" fill="#00B4D8" stroke="white" stroke-width="4"/>
<path d="M79.7037 51.3291C76.7071 51.9452 73.8498 50.3624 73.3218 47.7939" stroke="white" stroke-width="4" stroke-linecap="round"/>
<circle cx="49.5324" cy="86.3884" r="22.03" transform="rotate(-154.385 49.5324 86.3884)" fill="#00B4D8"/>
<circle cx="54.3944" cy="104.622" r="26.0382" transform="rotate(-154.385 54.3944 104.622)" fill="#00B4D8" stroke="white" stroke-width="4"/>
<path d="M69.8668 100.099C73.167 106.793 70.4164 114.894 63.7231 118.194" stroke="white" stroke-width="4" stroke-linecap="round"/>
<circle cx="97.1718" cy="123.799" r="10.8147" transform="rotate(-154.385 97.1718 123.799)" fill="#00B4D8"/>
<circle cx="96.0632" cy="132.596" r="11.6185" transform="rotate(-154.385 96.0632 132.596)" fill="#00B4D8" stroke="white" stroke-width="4"/>
<circle cx="68.6542" cy="160.554" r="8.01363" transform="rotate(-154.385 68.6542 160.554)" fill="#00B4D8" stroke="white" stroke-width="4"/>
<path d="M99.1802 126.095C101.973 127.434 103.306 130.46 102.159 132.854" stroke="white" stroke-width="4" stroke-linecap="round"/>
</svg>
