<svg width="16" height="16" viewBox="0 0 16 16" fill="none" xmlns="http://www.w3.org/2000/svg">
<path d="M12.6897 2.64C12.6897 2.26998 12.3898 1.97 12.0197 1.97L3.97973 1.97C3.6097 1.97 3.30973 2.26998 3.30973 2.64L3.30973 13.36C3.30973 13.73 3.6097 14.03 3.97973 14.03L12.0197 14.03C12.3898 14.03 12.6897 13.73 12.6897 13.36L12.6897 2.64ZM14.0297 13.36C14.0297 14.4701 13.1298 15.37 12.0197 15.37L3.97973 15.37C2.86964 15.37 1.96973 14.4701 1.96973 13.36L1.96973 2.64C1.96973 1.52992 2.86964 0.630005 3.97973 0.630005L12.0197 0.630005C13.1298 0.630005 14.0297 1.52992 14.0297 2.64L14.0297 13.36Z" fill="#565D6D"/>
<path d="M9.33934 14.67V12.66H6.65934L6.65934 14.67C6.65934 15.04 6.35936 15.34 5.98934 15.34C5.61931 15.34 5.31934 15.04 5.31934 14.67L5.31934 11.99L5.32261 11.9213C5.357 11.5835 5.64249 11.32 5.98934 11.32L10.0093 11.32L10.078 11.3233C10.4158 11.3577 10.6793 11.6431 10.6793 11.99V14.67C10.6793 15.04 10.3794 15.34 10.0093 15.34C9.6393 15.34 9.33934 15.04 9.33934 14.67Z" fill="#565D6D"/>
<path d="M5.34647 3.33002L5.41516 3.33329C5.75301 3.36761 6.01647 3.65312 6.01647 4.00002C6.01647 4.34692 5.75301 4.63242 5.41516 4.66675L5.34647 4.67002H5.33992C4.96989 4.67002 4.66992 4.37004 4.66992 4.00002C4.66992 3.62999 4.96989 3.33002 5.33992 3.33002H5.34647Z" fill="#565D6D"/>
<path d="M10.6766 3.33002L10.7452 3.33329C11.0831 3.36761 11.3466 3.65312 11.3466 4.00002C11.3466 4.34692 11.0831 4.63242 10.7452 4.66675L10.6766 4.67002H10.67C10.3 4.67002 10 4.37004 10 4.00002C10 3.62999 10.3 3.33002 10.67 3.33002H10.6766Z" fill="#565D6D"/>
<path d="M8.00664 3.33002L8.07532 3.33329C8.41313 3.36761 8.67664 3.65312 8.67664 4.00002C8.67664 4.34692 8.41313 4.63242 8.07532 4.66675L8.00664 4.67002H8.00008C7.63004 4.67002 7.33008 4.37004 7.33008 4.00002C7.33008 3.62999 7.63004 3.33002 8.00008 3.33002H8.00664Z" fill="#565D6D"/>
<path d="M8.00664 6L8.07532 6.00327C8.41313 6.03759 8.67664 6.3231 8.67664 6.67C8.67664 7.01693 8.41313 7.30241 8.07532 7.33672L8.00664 7.34H8.00008C7.63004 7.34 7.33008 7.04004 7.33008 6.67C7.33008 6.29997 7.63004 6 8.00008 6H8.00664Z" fill="#565D6D"/>
<path d="M8.00664 8.66003L8.07532 8.66332C8.41313 8.69762 8.67664 8.98311 8.67664 9.33003C8.67664 9.67696 8.41313 9.96245 8.07532 9.99675L8.00664 10H8.00008C7.63004 10 7.33008 9.70008 7.33008 9.33003C7.33008 8.95999 7.63004 8.66003 8.00008 8.66003H8.00664Z" fill="#565D6D"/>
<path d="M10.6766 6L10.7452 6.00327C11.0831 6.03759 11.3466 6.3231 11.3466 6.67C11.3466 7.01693 11.0831 7.30241 10.7452 7.33672L10.6766 7.34H10.67C10.3 7.34 10 7.04004 10 6.67C10 6.29997 10.3 6 10.67 6H10.6766Z" fill="#565D6D"/>
<path d="M10.6766 8.66003L10.7452 8.66332C11.0831 8.69762 11.3466 8.98311 11.3466 9.33003C11.3466 9.67696 11.0831 9.96245 10.7452 9.99675L10.6766 10H10.67C10.3 10 10 9.70008 10 9.33003C10 8.95999 10.3 8.66003 10.67 8.66003H10.6766Z" fill="#565D6D"/>
<path d="M5.34647 6L5.41516 6.00327C5.75301 6.03759 6.01647 6.3231 6.01647 6.67C6.01647 7.01693 5.75301 7.30241 5.41516 7.33672L5.34647 7.34H5.33992C4.96989 7.34 4.66992 7.04004 4.66992 6.67C4.66992 6.29997 4.96989 6 5.33992 6H5.34647Z" fill="#565D6D"/>
<path d="M5.34647 8.66003L5.41516 8.66332C5.75301 8.69762 6.01647 8.98311 6.01647 9.33003C6.01647 9.67696 5.75301 9.96245 5.41516 9.99675L5.34647 10H5.33992C4.96989 10 4.66992 9.70008 4.66992 9.33003C4.66992 8.95999 4.96989 8.66003 5.33992 8.66003H5.34647Z" fill="#565D6D"/>
</svg>
