<svg width="20" height="20" viewBox="0 0 20 20" fill="none" xmlns="http://www.w3.org/2000/svg">
<g clip-path="url(#clip0_96_582)">
<path d="M8.58136 0.978204C10.5155 0.673499 12.4926 0.999435 14.2228 1.90142L14.5648 2.08947L14.6362 2.13486C14.9777 2.38069 15.0842 2.85029 14.8696 3.22262C14.6548 3.5949 14.1948 3.73795 13.811 3.56547L13.7357 3.52657L13.4552 3.37338C12.0398 2.63549 10.4223 2.36871 8.83998 2.61794C7.15219 2.88385 5.60628 3.72047 4.46056 4.98798C3.31487 6.25555 2.63817 7.87779 2.54362 9.58374C2.4491 11.2898 2.94233 12.9772 3.94101 14.3635C4.93967 15.7499 6.38378 16.7522 8.03184 17.2029C9.67986 17.6536 11.4329 17.5258 12.998 16.8406C14.5633 16.1554 15.8465 14.9538 16.6334 13.4371C17.371 12.0152 17.6306 10.3965 17.379 8.82023L17.3215 8.50574L17.3094 8.42149C17.2676 8.00304 17.5483 7.61252 17.9692 7.52661C18.3904 7.44079 18.8021 7.69056 18.9272 8.09237L18.9483 8.17425L19.018 8.55844C19.3255 10.4852 19.0078 12.4635 18.1061 14.2014C17.1444 16.0552 15.5766 17.5238 13.6635 18.3612C11.7506 19.1985 9.6084 19.3545 7.59414 18.8037C5.5798 18.2528 3.81448 17.0283 2.59388 15.3338C1.3733 13.6393 0.770553 11.5773 0.886053 9.49219C1.00159 7.40703 1.82902 5.42439 3.22935 3.8751C4.62967 2.32591 6.51856 1.30321 8.58136 0.978204Z" fill="#00B4D8"/>
<path d="M17.7915 2.70643C18.1175 2.44054 18.5981 2.45929 18.9019 2.76317C19.2059 3.06705 19.2246 3.54762 18.9587 3.87362L18.9019 3.93684L10.6019 12.2368C10.2981 12.5407 9.81749 12.5594 9.49155 12.2936L9.4283 12.2368L6.93828 9.74682L6.88154 9.68366C6.61565 9.35763 6.6344 8.87706 6.93828 8.5732C7.24215 8.26929 7.72273 8.25054 8.04873 8.51643L8.11195 8.5732L10.0151 10.4763L17.7283 2.76317L17.7915 2.70643Z" fill="#00B4D8"/>
</g>
<defs>
<clipPath id="clip0_96_582">
<rect width="20" height="20" fill="white"/>
</clipPath>
</defs>
</svg>
