<svg width="229" height="36" viewBox="0 0 229 36" fill="none" xmlns="http://www.w3.org/2000/svg">
<path d="M83.5117 10.1641C87.4228 10.1599 89.0146 10.7399 91.584 13.1104C94.8984 16.1623 95.3766 17.7117 95.584 26.0801C95.6983 30.7958 95.601 33.6199 95.3047 34.1787C94.8262 35.0717 93.573 35.461 91.9688 35.2197C91.4481 35.1434 90.7328 34.669 90.3857 34.1738L89.751 33.2686L87.833 34.1992C84.3237 35.9051 79.5614 35.3722 75.9082 32.8662C71.3324 29.7294 69.5634 22.6767 72.0186 17.3516C74.2325 12.5471 78.0341 10.1725 83.5117 10.1641ZM44.6514 1.0293C45.8874 -0.21101 46.9755 -0.275087 48.3174 0.808594C49.2443 1.55777 49.3245 1.96462 49.46 6.52344C49.5361 9.21759 49.7517 11.4258 49.9336 11.4297C50.1198 11.4297 50.954 11.1462 51.792 10.7949C53.6038 10.0372 58.2987 9.96495 60.6143 10.6592C62.9509 11.3576 65.787 14.0121 67.1289 16.751C69.4486 21.4921 68.3986 27.9979 64.7158 31.7061C61.0796 35.3677 55.2593 36.24 50.459 33.8398C47.8768 32.5487 46.1668 30.8255 44.6133 27.9385C43.8895 26.5967 43.8047 25.2969 43.7158 14.2578L43.6182 2.06152L44.6514 1.0293ZM207.614 1.03711C208.863 -0.20729 209.951 -0.279278 211.293 0.808594C212.207 1.54935 212.305 1.9856 212.419 5.99414C212.58 11.5433 212.584 11.5567 214.069 10.7822C214.793 10.4055 216.47 10.1641 218.37 10.1641C220.944 10.1598 221.85 10.3546 223.539 11.2773C225.719 12.4626 227.464 14.5965 228.403 17.2295C228.797 18.3347 228.983 21.0948 228.996 26.0469C229.017 34.284 228.759 35.1347 226.266 35.1348C223.692 35.1348 223.51 34.6017 223.51 27.0498C223.51 19.3969 223.141 17.9066 220.89 16.4971C218.841 15.2102 215.822 15.5362 214.129 17.2295C212.436 18.9226 212.102 20.6878 212.089 28.0273C212.08 33.7505 212.012 34.2932 211.263 34.6953C210.996 34.839 210.721 34.945 210.442 35.0127L209.282 34.377C208.563 33.979 208.055 33.4161 208.156 33.124C208.258 32.8321 208.135 32.5957 207.881 32.5957C207.631 32.5957 207.419 32.2609 207.415 31.8545C207.413 31.5353 207.397 31.3737 207.337 31.3604C207.396 31.3753 207.412 31.5371 207.414 31.8545C207.418 32.2609 207.63 32.5957 207.88 32.5957C208.134 32.5958 208.257 32.8322 208.155 33.124C208.054 33.4161 208.562 33.979 209.281 34.377L210.598 35.1016L209.45 35.1182C209.125 35.1224 208.747 35.0278 208.388 34.8662C208.453 34.8957 208.518 34.9241 208.584 34.9492C208.198 34.8129 207.842 34.601 207.544 34.3125C207.508 34.2782 207.472 34.2436 207.439 34.208C206.64 33.3485 206.448 32.8649 206.759 32.1807L206.701 31.3828C206.583 29.2776 206.577 25.3672 206.577 17.6816V2.0791L207.614 1.03711ZM101.007 16.0859C102.853 12.0561 106.73 9.96541 111.878 10.2236C115.937 10.4269 118.553 11.9213 120.483 15.1426C122.147 17.9193 122.329 19.0665 122.333 26.9863C122.337 32.878 122.266 33.5136 121.491 34.2881C121.026 34.7537 120.12 35.1311 119.48 35.127C117.127 35.1143 117.063 34.9231 116.826 27.0029C116.644 21.0726 116.458 19.4173 115.844 18.2744C114.413 15.6205 110.333 14.9305 107.594 16.8818C105.867 18.1094 105.405 20.3789 105.405 27.6387C105.405 33.0051 105.312 33.8185 104.631 34.4365C103.581 35.3847 101.473 35.3252 100.562 34.3135C99.8981 33.5854 99.8388 32.6709 99.9785 25.7422C100.114 19.0242 100.249 17.7369 101.007 16.0859ZM195.253 10.1641C199.664 10.1598 200.325 10.2567 201.074 11.0059C202.09 12.0218 202.161 13.44 201.26 14.7227C200.646 15.5989 200.278 15.6628 195.863 15.667C190.115 15.6755 189.293 15.8664 188.941 17.2676C188.73 18.1138 188.921 18.5628 189.813 19.333C190.808 20.1881 191.414 20.3193 194.348 20.3193C196.523 20.3193 198.165 20.5436 198.957 20.9541C200.337 21.6653 202.078 23.8035 202.577 25.3994C203.445 28.1593 202.128 31.7492 199.524 33.7344C198.013 34.8898 197.801 34.9274 191.913 35.0586C185.92 35.194 185.847 35.1861 184.789 34.1279C183.498 32.8368 183.426 31.6172 184.564 30.4785C185.318 29.725 185.975 29.6318 190.64 29.6318C195.291 29.6318 195.944 29.5391 196.612 28.8027C197.586 27.7275 197.192 26.0132 195.893 25.666C195.368 25.5263 193.64 25.4076 192.062 25.4033C187.778 25.3948 185.335 23.9597 183.946 20.6367C182.168 16.3782 184.332 11.8145 188.705 10.5996C189.573 10.3626 192.519 10.1641 195.253 10.1641ZM37.2559 10.1602C39.5628 10.1602 40.6376 11.1079 40.6377 13.1523C40.6377 14.5789 39.5879 15.4764 37.4756 15.8574C35.1306 16.2808 33.5473 17.534 33.0352 19.3838C32.7939 20.2476 32.5996 23.8455 32.5996 27.3799C32.5954 32.6544 32.4767 33.9246 31.9307 34.4707C31.0586 35.3427 28.6113 35.3209 27.7266 34.4404C27.1174 33.8307 27.0452 32.699 27.168 25.4453C27.2992 17.3181 27.3292 17.1063 28.4424 15.21C30.2965 12.052 33.5984 10.1602 37.2559 10.1602ZM145.323 13.1777C147.855 10.422 154.17 9.13975 155.542 11.0996C157.062 13.2711 155.919 15.4128 153.028 15.8066C148.516 16.4289 148.02 17.4833 147.825 26.8809C147.698 32.8916 147.563 34.1662 146.991 34.6064C146.077 35.313 144.282 35.2747 143.267 34.5342C142.505 33.9754 142.445 33.37 142.458 26.1738C142.471 19.0283 142.547 18.249 143.432 16.3018C143.961 15.142 144.811 13.7365 145.323 13.1777ZM136.917 0C139.744 3.08011e-05 140.282 0.300935 140.743 2.14648C141.175 3.86927 139.901 5.05454 137.272 5.35938C134.724 5.65993 133.843 6.42187 133.674 8.4834L133.556 9.94824L136.138 10.1602C139.846 10.465 140.976 11.701 139.896 14.2705C139.325 15.629 138.093 16.0859 134.986 16.0859H133.344V24.9121C133.344 32.9204 133.272 33.7973 132.569 34.4365C131.541 35.3636 129.415 35.3255 128.539 34.3604C127.938 33.6915 127.841 32.3831 127.841 24.8359C127.841 17.7243 127.731 16.0859 127.261 16.0859C126.071 16.0859 124.454 14.3585 124.454 13.0928C124.454 11.6918 125.749 10.1604 126.935 10.1602C127.578 10.1602 127.778 9.71904 128.002 7.79297C128.324 5.05019 128.984 3.62347 130.66 2.03613C132.307 0.478488 133.78 0 136.917 0ZM19.9844 10.1602C22.4777 10.1602 22.6475 10.6892 22.6475 18.584C22.6475 24.1968 22.4992 26.0386 21.9023 27.7402C20.2683 32.4219 16.3775 35.1608 11.4502 35.1016C9.92631 35.0846 7.86904 34.7839 6.88281 34.4326C4.38108 33.5478 1.56666 30.6856 0.703125 28.1543C0.157122 26.55 0 24.4885 0 18.8291C5.57886e-07 10.7312 0.190873 10.1602 2.86621 10.1602C5.18137 10.1603 5.50292 11.1718 5.50293 18.4014C5.50293 23.6123 5.6388 25.0309 6.24414 26.2373C7.79351 29.3188 11.4846 30.5 14.2656 28.8027C16.6446 27.3508 16.9326 26.2414 16.9326 18.499C16.9326 10.6807 17.123 10.1602 19.9844 10.1602ZM169.508 10.168C171.62 10.1638 172.95 10.4051 174.236 11.0273C179.625 13.6351 182.592 21.5551 179.265 24.4463C178.219 25.3522 177.825 25.3994 170.993 25.3994C164.335 25.3994 163.822 25.4542 163.822 26.1738C163.822 27.122 165.317 28.5734 166.921 29.1787C167.573 29.4285 170.075 29.6318 172.475 29.6318C177.33 29.6318 177.948 29.9286 177.885 32.2314C177.813 34.7415 176.953 35.139 171.696 35.0967C169.11 35.0797 166.523 34.9151 165.938 34.7373C163.716 34.06 161.291 32.5485 160.301 31.2236C158.07 28.2478 157.71 27.0923 157.697 22.8594C157.685 19.3035 157.816 18.5917 158.811 16.7207C161.147 12.327 164.648 10.1849 169.508 10.168ZM61.6426 18.8838C59.8138 15.7686 56.2581 14.8036 52.9014 16.5137C49.4769 18.262 48.2577 23.8243 50.6748 26.6943C53.0157 29.4797 56.1567 30.3894 58.7559 29.0391C62.5698 27.0537 63.8311 22.6174 61.6426 18.8838ZM87.0674 16.7461C85.3911 15.5228 81.3821 15.5271 79.748 16.7461C77.8856 18.1345 76.9673 19.6545 76.7344 21.7285C76.4508 24.2216 76.7805 25.4454 78.1855 27.1172C80.3824 29.7247 84.2052 30.4153 86.8213 28.6758C88.4849 27.5709 90.166 24.5397 90.166 22.6475C90.166 20.9076 88.5447 17.8255 87.0674 16.7461ZM172.213 16.2598C170.261 15.248 166.624 15.6246 165.304 16.9707C164.749 17.5295 164.169 18.5161 164.013 19.1553L163.729 20.3193H169.279C172.872 20.3193 174.827 20.1627 174.828 19.875C174.828 18.8126 173.44 16.8907 172.213 16.2598Z" fill="white"/>
</svg>
