<svg width="211" height="31" viewBox="0 0 211 31" fill="none" xmlns="http://www.w3.org/2000/svg">
<path d="M76.9482 8.92773C80.5521 8.92402 82.0193 9.43345 84.3867 11.5156C87.4408 14.1967 87.8811 15.5586 88.0723 22.9102C88.1776 27.0524 88.0885 29.5326 87.8154 30.0234C87.3747 30.808 86.2202 31.1503 84.7422 30.9385C84.2624 30.8715 83.6031 30.4546 83.2832 30.0195L82.6982 29.2236L80.9307 30.042C77.6973 31.5404 73.3093 31.0723 69.9434 28.8711C65.727 26.1156 64.0971 19.9201 66.3594 15.2422C68.3993 11.0218 71.9013 8.93528 76.9482 8.92773ZM41.1426 0.90332C42.2815 -0.186152 43.2841 -0.24197 44.5205 0.709961C45.3746 1.36808 45.4484 1.72579 45.5732 5.73047C45.6434 8.09677 45.8422 10.0364 46.0098 10.04C46.1814 10.04 46.9504 9.79106 47.7227 9.48242C49.3921 8.8168 53.718 8.75344 55.8516 9.36328C58.0044 9.97703 60.6171 12.3083 61.8535 14.7139C63.9909 18.8786 63.0241 24.5941 59.6309 27.8516C56.2804 31.0681 50.9172 31.834 46.4941 29.7256C44.1149 28.5914 42.5389 27.078 41.1074 24.542C40.4405 23.3633 40.3622 22.221 40.2803 12.5234L40.1904 1.81055L41.1426 0.90332ZM191.298 0.911133C192.448 -0.182069 193.451 -0.245562 194.688 0.709961C195.53 1.36071 195.62 1.74415 195.726 5.26562C195.874 10.14 195.877 10.1511 197.246 9.4707C197.913 9.13977 199.458 8.92776 201.209 8.92773C203.58 8.92402 204.415 9.0956 205.972 9.90625C207.98 10.9474 209.587 12.8218 210.453 15.1348C210.816 16.1055 210.987 18.5298 210.999 22.8799C211.019 30.1162 210.781 30.8633 208.483 30.8633C206.112 30.8632 205.944 30.395 205.944 23.7617C205.944 17.0388 205.605 15.7294 203.53 14.4912C201.642 13.3608 198.861 13.6473 197.301 15.1348C195.741 16.6221 195.433 18.1729 195.421 24.6201C195.413 29.6476 195.351 30.1233 194.66 30.4766C194.526 30.5458 194.389 30.6042 194.25 30.6533L194.4 30.7539L193.247 30.7744C192.592 30.7847 191.72 30.3095 191.227 29.6641C190.519 28.7408 190.286 28.173 190.453 27.4805C190.349 25.611 190.343 22.179 190.343 15.5322V1.8252L191.298 0.911133ZM93.0693 14.1299C94.77 10.59 98.3431 8.75364 103.086 8.98047C106.826 9.15903 109.237 10.4711 111.016 13.3008C112.548 15.7401 112.716 16.7481 112.72 23.7051C112.724 28.8813 112.657 29.4396 111.943 30.1201C111.514 30.5291 110.68 30.8602 110.091 30.8564C107.922 30.8453 107.864 30.6778 107.646 23.7207C107.478 18.511 107.306 17.0567 106.74 16.0527C105.422 13.7213 101.662 13.1151 99.1387 14.8291C97.5473 15.9075 97.1221 17.901 97.1221 24.2783C97.1221 28.9928 97.036 29.7071 96.4082 30.25C95.441 31.0828 93.4989 31.031 92.6602 30.1426C92.0478 29.503 91.9924 28.6996 92.1211 22.6123C92.2459 16.711 92.3712 15.5801 93.0693 14.1299ZM179.909 8.92773C183.973 8.92402 184.582 9.0098 185.272 9.66797C186.208 10.5604 186.274 11.806 185.443 12.9326C184.878 13.7024 184.539 13.758 180.471 13.7617C175.174 13.7692 174.417 13.9371 174.094 15.168C173.899 15.9115 174.074 16.3058 174.896 16.9824C175.813 17.7336 176.371 17.8486 179.074 17.8486C181.079 17.8486 182.593 18.0455 183.322 18.4062C184.594 19.0311 186.196 20.9097 186.656 22.3115C187.456 24.7359 186.243 27.8888 183.845 29.6328C182.452 30.648 182.257 30.6816 176.831 30.7969C171.308 30.9159 171.242 30.9081 170.267 29.9785C169.077 28.8445 169.011 27.7736 170.061 26.7734C170.755 26.1116 171.359 26.0293 175.657 26.0293C179.944 26.0293 180.545 25.9478 181.161 25.3008C182.058 24.3563 181.695 22.8498 180.498 22.5449C180.014 22.4222 178.423 22.3182 176.968 22.3145C173.021 22.307 170.771 21.0467 169.491 18.1279C167.853 14.3871 169.846 10.3778 173.875 9.31055C174.675 9.10233 177.39 8.92773 179.909 8.92773ZM133.903 11.5752C136.236 9.15468 142.055 8.02848 143.318 9.75C144.719 11.6576 143.666 13.5389 141.002 13.8848C136.844 14.4314 136.387 15.3574 136.208 23.6123C136.091 28.8927 135.966 30.0127 135.439 30.3994C134.597 31.02 132.944 30.9863 132.008 30.3359C131.306 29.8451 131.251 29.3128 131.263 22.9912C131.274 16.7152 131.344 16.0305 132.159 14.3203C132.647 13.3014 133.431 12.066 133.903 11.5752ZM34.3281 8.92383C36.4539 8.92383 37.4453 9.75765 37.4453 11.5537C37.4451 12.8066 36.4774 13.5951 34.5312 13.9297C32.3704 14.3015 30.9114 15.4023 30.4395 17.0273C30.2172 17.7866 30.0381 20.9472 30.0381 24.0518C30.0342 28.6847 29.925 29.8006 29.4219 30.2803C28.6184 31.0462 26.3642 31.0272 25.5488 30.2539C24.9872 29.7184 24.9201 28.7252 25.0332 22.3516C25.1541 15.2123 25.1822 15.0262 26.208 13.3604C27.9164 10.5866 30.9584 8.92391 34.3281 8.92383ZM126.157 0C128.762 3.0288e-05 129.258 0.263855 129.683 1.88477C130.08 3.39822 128.907 4.4393 126.484 4.70703C124.136 4.97105 123.325 5.64121 123.169 7.45215L123.06 8.73828L125.439 8.92383C128.856 9.19161 129.897 10.2781 128.902 12.5352C128.376 13.7286 127.241 14.1299 124.378 14.1299H122.865V21.8838C122.865 28.9179 122.799 29.6885 122.151 30.25C121.204 31.0644 119.245 31.0314 118.438 30.1836C117.884 29.5961 117.794 28.4466 117.794 21.8164C117.794 15.5693 117.693 14.1299 117.26 14.1299C116.164 14.1298 114.674 12.6128 114.674 11.501C114.674 10.2702 115.868 8.92383 116.96 8.92383C117.552 8.92363 117.736 8.53712 117.942 6.8457C118.239 4.43609 118.847 3.18254 120.392 1.78809C121.909 0.419658 123.267 0 126.157 0ZM18.4141 8.92383C20.7114 8.92383 20.8682 9.38912 20.8682 16.3242C20.8682 21.2547 20.7315 22.8724 20.1816 24.3672C18.6761 28.4799 15.0909 30.886 10.5508 30.834C9.14666 30.8191 7.25149 30.5547 6.34277 30.2461C4.0376 29.4689 1.44413 26.9551 0.648438 24.7314C0.14535 23.3222 3.04839e-06 21.5114 0 16.54C0 9.4269 0.175988 8.92389 2.64062 8.92383C4.77415 8.92383 5.07128 9.81299 5.07129 16.1641C5.07129 20.7412 5.19626 21.9871 5.75391 23.0469C7.18147 25.754 10.5829 26.7919 13.1455 25.3008C15.3372 24.0254 15.6025 23.0507 15.6025 16.25C15.6025 9.38223 15.7778 8.92388 18.4141 8.92383ZM156.187 8.93164C158.133 8.92793 159.357 9.13997 160.543 9.68652C165.508 11.9772 168.243 18.9348 165.177 21.4746C164.214 22.2702 163.85 22.3115 157.556 22.3115C151.421 22.3115 150.948 22.3594 150.948 22.9912C150.948 23.8241 152.325 25.1 153.803 25.6318C154.403 25.8512 156.709 26.0293 158.921 26.0293C163.394 26.0293 163.964 26.29 163.905 28.3125C163.839 30.5176 163.047 30.8673 158.203 30.8301C155.82 30.8152 153.437 30.6708 152.898 30.5146C150.851 29.9197 148.616 28.5916 147.703 27.4277C145.648 24.8136 145.315 23.7985 145.304 20.0801C145.292 16.9567 145.414 16.3319 146.33 14.6885C148.483 10.8286 151.709 8.94652 156.187 8.93164ZM191.139 30.0498C191.408 30.3248 191.794 30.5552 192.191 30.7002C191.794 30.5664 191.431 30.3508 191.139 30.0498ZM56.7988 16.5879C55.1138 13.8513 51.8371 13.0036 48.7441 14.5059C45.5889 16.0418 44.4654 20.9281 46.6924 23.4492C48.8493 25.896 51.7438 26.695 54.1387 25.5088C57.653 23.7648 58.8154 19.8677 56.7988 16.5879ZM80.2246 14.71C78.6799 13.6357 74.9871 13.6394 73.4814 14.71C71.7653 15.9296 70.9187 17.2649 70.7041 19.0869C70.4428 21.2771 70.747 22.3525 72.042 23.8213C74.0664 26.1117 77.5887 26.7177 79.999 25.1895C81.5319 24.2189 83.0801 21.5557 83.0801 19.8936C83.0798 18.3651 81.5857 15.6581 80.2246 14.71ZM158.679 14.2832C156.881 13.3945 153.531 13.7249 152.313 14.9072C151.803 15.398 151.268 16.2647 151.124 16.8262L150.862 17.8486H155.976C159.287 17.8486 161.089 17.7109 161.089 17.458C161.089 16.5246 159.81 14.8373 158.679 14.2832Z" fill="#3470A7"/>
</svg>
