<svg width="16" height="16" viewBox="0 0 16 16" fill="none" xmlns="http://www.w3.org/2000/svg">
<path d="M14.3401 4.09469C14.6522 3.89603 15.0665 3.9881 15.2652 4.30014C15.4639 4.61222 15.3718 5.02655 15.0598 5.22532L9.03572 9.06211C9.02808 9.06694 9.02058 9.07196 9.0128 9.07652C8.74447 9.23236 8.44391 9.32375 8.13537 9.34412L8.00325 9.34807C7.64868 9.34807 7.30022 9.25454 6.99362 9.07652C6.98585 9.07196 6.97775 9.067 6.97011 9.06211L0.940094 5.22532L0.884477 5.1854C0.61785 4.97508 0.548403 4.59282 0.734645 4.30014C0.920932 4.0075 1.29684 3.90816 1.60028 4.06067L1.65982 4.09469L7.67019 7.9197C7.77149 7.97772 7.88647 8.00807 8.00325 8.00807L8.09088 8.00277C8.17664 7.99145 8.25939 7.96284 8.33496 7.9197L14.3401 4.09469Z" fill="#565D6D"/>
<path d="M14.0299 3.98C14.0299 3.60997 13.7299 3.31 13.3599 3.31L2.63988 3.31C2.26986 3.31 1.96988 3.60997 1.96988 3.98L1.96988 12.02C1.96988 12.39 2.26986 12.69 2.63988 12.69L13.3599 12.69C13.7299 12.69 14.0299 12.39 14.0299 12.02L14.0299 3.98ZM15.3699 12.02C15.3699 13.1301 14.47 14.03 13.3599 14.03L2.63988 14.03C1.52979 14.03 0.629883 13.1301 0.629883 12.02L0.629883 3.98C0.629883 2.86991 1.52979 1.97 2.63988 1.97L13.3599 1.97C14.47 1.97 15.3699 2.86991 15.3699 3.98L15.3699 12.02Z" fill="#565D6D"/>
</svg>
