<svg width="16" height="16" viewBox="0 0 16 16" fill="none" xmlns="http://www.w3.org/2000/svg">
<g clip-path="url(#clip0_96_782)">
<path d="M4.72303 0.636732C5.20842 0.633533 5.67853 0.806297 6.04667 1.12287C6.3702 1.4011 6.59607 1.77377 6.69309 2.18611L6.72646 2.36539L6.72713 2.37127L6.75989 2.59374C6.84283 3.10968 6.97623 3.61649 7.15901 4.10647L7.20477 4.24256C7.29984 4.56346 7.31351 4.90371 7.24336 5.23251C7.16323 5.60831 6.97704 5.95316 6.70683 6.22639L6.70421 6.22966L6.22464 6.70861C7.01248 7.94469 8.06123 8.99264 9.29725 9.78056L9.77945 9.29896L9.88544 9.20215C10.1396 8.9844 10.4445 8.83258 10.7733 8.76243C11.1485 8.68243 11.5389 8.71164 11.8981 8.84618C12.3885 9.02922 12.8962 9.16362 13.4127 9.24664L13.6346 9.27866L13.6405 9.27933C14.1285 9.34821 14.5747 9.59416 14.8934 9.9703C15.2085 10.3422 15.3765 10.816 15.3685 11.3031L15.3691 13.3105L15.3671 13.4152C15.3554 13.6592 15.299 13.8993 15.201 14.1238C15.0888 14.3802 14.9243 14.6105 14.7181 14.7997C14.5119 14.9888 14.2686 15.1333 14.0036 15.223C13.7716 15.3014 13.5273 15.3363 13.2832 15.327L13.1785 15.3205C13.1745 15.3201 13.1701 15.3196 13.1661 15.3192C11.0004 15.0838 8.92004 14.3439 7.09221 13.1587C5.39279 12.0777 3.95165 10.6358 2.87137 8.93582C1.68385 7.10096 0.94435 5.01191 0.713502 2.83844L0.712188 2.82798C0.687083 2.55013 0.720664 2.26991 0.80968 2.00552C0.898743 1.74109 1.04163 1.49776 1.22974 1.29169C1.41787 1.08559 1.6471 0.920908 1.90236 0.80816C2.15755 0.695459 2.4334 0.637002 2.71238 0.636732L4.72303 0.636732ZM2.64433 1.98066C2.5752 1.98792 2.5073 2.00546 2.44346 2.03366C2.35839 2.07124 2.28239 2.12658 2.21969 2.19527C2.15704 2.2639 2.10937 2.34472 2.07967 2.43278C2.05112 2.51756 2.03967 2.60732 2.0463 2.69646L2.09079 3.06417C2.32365 4.77587 2.90627 6.4213 3.80244 7.89813L3.99873 8.21216L4.002 8.21678L4.18913 8.50206C5.0784 9.81995 6.21267 10.9549 7.53059 11.8442L7.81588 12.0307L7.8211 12.0339L8.13386 12.2302C9.70588 13.1854 11.4695 13.7851 13.3008 13.9857C13.3932 13.9938 13.4866 13.9833 13.5743 13.9537C13.6626 13.9238 13.7438 13.8753 13.8125 13.8123C13.8812 13.7493 13.9361 13.6727 13.9735 13.5872C14.0108 13.5017 14.0295 13.409 14.0291 13.3157L14.0291 11.3031L14.0297 11.2867C14.0338 11.1224 13.977 10.962 13.8707 10.8365C13.7658 10.7128 13.6196 10.6309 13.4592 10.6069C12.766 10.5155 12.0854 10.3462 11.4303 10.1018L11.4282 10.1012C11.3085 10.0562 11.1784 10.0464 11.0534 10.073C10.9281 10.0997 10.8127 10.1622 10.7216 10.2523L9.87365 11.1003C9.66039 11.3135 9.33041 11.3579 9.06824 11.2089C7.28611 10.1955 5.81031 8.71975 4.79696 6.93761C4.648 6.67544 4.69301 6.34605 4.90623 6.13282L5.75355 5.2842C5.84361 5.19313 5.9061 5.07839 5.93283 4.95313C5.95954 4.82785 5.94976 4.69747 5.90469 4.57756L5.90404 4.57625C5.66029 3.92304 5.49122 3.24431 5.39958 2.55317L5.38845 2.49298C5.35609 2.35569 5.28088 2.23168 5.17319 2.13899C5.06534 2.04625 4.93117 1.9901 4.79042 1.9787L4.72958 1.97673L2.71369 1.97673L2.64433 1.98066Z" fill="#565D6D"/>
</g>
<defs>
<clipPath id="clip0_96_782">
<rect width="16" height="16" fill="white"/>
</clipPath>
</defs>
</svg>
