<svg width="16" height="16" viewBox="0 0 16 16" fill="none" xmlns="http://www.w3.org/2000/svg">
<path d="M10.6795 5.33C10.6795 3.84987 9.47959 2.65 7.99949 2.65C6.51937 2.65 5.31949 3.84987 5.31949 5.33C5.31949 6.81009 6.51937 8.01 7.99949 8.01C9.47959 8.01 10.6795 6.81009 10.6795 5.33ZM12.0195 5.33C12.0195 7.55018 10.2197 9.35 7.99949 9.35C5.77931 9.35 3.97949 7.55018 3.97949 5.33C3.97949 3.10981 5.77931 1.31 7.99949 1.31C10.2197 1.31 12.0195 3.10981 12.0195 5.33Z" fill="#565D6D"/>
<path d="M12.6897 14.01C12.6897 12.7661 12.1959 11.5729 11.3164 10.6933C10.4917 9.86871 9.39132 9.3833 8.23202 9.32588L7.99973 9.31998C6.75587 9.31998 5.56264 9.81384 4.68309 10.6933C3.80355 11.5729 3.30973 12.7661 3.30973 14.01C3.30973 14.38 3.00975 14.68 2.63973 14.68C2.2697 14.68 1.96973 14.38 1.96973 14.01C1.96973 12.4108 2.60483 10.8768 3.73567 9.7459C4.86652 8.61507 6.40047 7.97998 7.99973 7.97998C9.59895 7.97998 11.1329 8.61507 12.2638 9.7459C13.3946 10.8768 14.0297 12.4108 14.0297 14.01C14.0297 14.38 13.7298 14.68 13.3597 14.68C12.9897 14.68 12.6897 14.38 12.6897 14.01Z" fill="#565D6D"/>
</svg>
