<svg viewBox="0 0 200 200" xmlns="http://www.w3.org/2000/svg">
  <path fill="#90E0EF" d="M42.7,-72.8C54.6,-67.3,63.3,-53.4,70.8,-39.5C78.3,-25.7,84.6,-12.8,83.9,-0.4C83.1,12,75.3,23.9,67.5,36.4C59.7,48.9,51.9,62,40.4,70.8C28.9,79.6,14.5,84.1,-0.5,85C-15.5,85.8,-31,83.1,-44.6,75.5C-58.1,67.9,-69.8,55.4,-77.3,40.8C-84.8,26.2,-88.1,9.6,-86.5,-6.3C-84.8,-22.2,-78.3,-37.4,-68.2,-49.9C-58,-62.4,-44.3,-72.1,-29.9,-76.1C-15.5,-80.1,0,-78.4,13.8,-74.8C27.7,-71.2,30.8,-78.3,42.7,-72.8Z" transform="translate(100 100)" />
</svg>