<svg width="38" height="38" viewBox="0 0 38 38" fill="none" xmlns="http://www.w3.org/2000/svg">
<path fill-rule="evenodd" clip-rule="evenodd" d="M19 36.8125C28.1817 36.8125 35.625 29.3692 35.625 20.1875C35.625 11.0058 28.1817 3.5625 19 3.5625C9.81826 3.5625 2.375 11.0058 2.375 20.1875C2.375 23.1692 3.15994 25.9675 4.53443 28.3872L2.375 36.8125L11.0614 34.7983C13.4204 36.0827 16.1249 36.8125 19 36.8125ZM19 34.2549C26.7692 34.2549 33.0674 27.9567 33.0674 20.1875C33.0674 12.4184 26.7692 6.1202 19 6.1202C11.2308 6.1202 4.9327 12.4184 4.9327 20.1875C4.9327 23.1872 5.87159 25.9677 7.47156 28.2509L6.21154 32.9759L11.0199 31.7738C13.2874 33.3386 16.0367 34.2549 19 34.2549Z" fill="#BFC8D0"/>
<path fill-rule="evenodd" clip-rule="evenodd" d="M19 35.625C28.1817 35.625 35.625 28.1817 35.625 19C35.625 9.81826 28.1817 2.375 19 2.375C9.81826 2.375 2.375 9.81826 2.375 19C2.375 21.9817 3.15994 24.78 4.53443 27.1997L2.375 35.625L11.0614 33.6108C13.4204 34.8952 16.1249 35.625 19 35.625ZM19 33.0674C26.7692 33.0674 33.0674 26.7692 33.0674 19C33.0674 11.2308 26.7692 4.9327 19 4.9327C11.2308 4.9327 4.9327 11.2308 4.9327 19C4.9327 21.9997 5.87159 24.7802 7.47156 27.0634L6.21154 31.7884L11.0199 30.5863C13.2874 32.1511 16.0367 33.0674 19 33.0674Z" fill="white"/>
<path d="M14.8438 11.2811C14.4485 10.4872 13.8421 10.5575 13.2296 10.5575C12.1348 10.5575 10.4277 11.8688 10.4277 14.3094C10.4277 16.3095 11.3091 18.4989 14.279 21.7741C17.1451 24.935 20.9112 26.5701 24.0376 26.5144C27.1641 26.4588 27.8073 23.7683 27.8073 22.8597C27.8073 22.457 27.5574 22.2561 27.3853 22.2015C26.3199 21.6902 24.3548 20.7374 23.9077 20.5585C23.4606 20.3795 23.2271 20.6216 23.082 20.7533C22.6766 21.1396 21.8729 22.2784 21.5977 22.5346C21.3225 22.7907 20.9122 22.6611 20.7415 22.5643C20.1132 22.3122 18.4097 21.5544 17.0519 20.2381C15.3725 18.6103 15.274 18.0501 14.9576 17.5516C14.7046 17.1527 14.8903 16.9081 14.9829 16.8011C15.3448 16.3837 15.8443 15.7391 16.0684 15.4189C16.2924 15.0985 16.1146 14.6122 16.0079 14.3094C15.5489 13.0067 15.16 11.9162 14.8438 11.2811Z" fill="white"/>
</svg>
